<svg width="17" height="17" viewBox="0 0 17 17" fill="none" xmlns="http://www.w3.org/2000/svg">
  <path fill-rule="evenodd" clip-rule="evenodd" d="M8.5 1.59375C4.68562 1.59375 1.59375 4.68562 1.59375 8.5C1.59375 12.3144 4.68562 15.4062 8.5 15.4062C12.3144 15.4062 15.4062 12.3144 15.4062 8.5C15.4062 4.68562 12.3144 1.59375 8.5 1.59375ZM4.43558 4.301C3.57354 5.13564 2.98931 6.2154 2.76227 7.39362C2.53523 8.57184 2.67638 9.79139 3.16654 10.8866C3.65671 11.9818 4.47213 12.8996 5.50204 13.5152C6.53194 14.1309 7.7264 14.4146 8.92315 14.3278C10.1199 14.241 11.2609 13.7879 12.1912 13.0301C13.1215 12.2723 13.796 11.2465 14.123 10.092C14.45 8.93751 14.4137 7.71036 14.019 6.57723C13.6244 5.44411 12.8905 4.45993 11.917 3.75842C11.6774 4.14135 11.3592 4.46899 10.9834 4.71962L10.0938 5.3125L10.2106 5.54625C10.2644 5.65386 10.283 5.77567 10.2637 5.89441C10.2444 6.01315 10.1882 6.12281 10.1031 6.20783C10.018 6.29286 9.90825 6.34895 9.78948 6.36814C9.67072 6.38734 9.54893 6.36868 9.44138 6.31479L9.01354 6.10087C8.86405 6.02611 8.69484 6.00025 8.52984 6.02695C8.36484 6.05364 8.21242 6.13154 8.09412 6.24962L8.00062 6.34242C7.68967 6.65408 7.68967 7.15842 8.00062 7.46937L8.21029 7.67904C8.39162 7.86108 8.65088 7.94396 8.90446 7.90146L9.73321 7.76333C9.962 7.72508 10.1965 7.78883 10.3742 7.93687L11.3163 8.72171C11.543 8.91083 11.6422 9.21329 11.5699 9.50087C11.2989 10.584 10.7387 11.5731 9.94925 12.3625L9.43712 12.8754C9.31883 12.9935 9.16641 13.0714 9.00141 13.0981C8.83641 13.1247 8.6672 13.0989 8.51771 13.0241L8.40933 12.9703C8.27698 12.9041 8.16566 12.8024 8.08784 12.6766C8.01002 12.5507 7.96879 12.4057 7.96875 12.2577V11.4863C7.96875 11.2752 7.88446 11.072 7.735 10.9225L6.78087 9.96838C6.66279 9.85008 6.58489 9.69766 6.5582 9.53266C6.5315 9.36766 6.55736 9.19845 6.63212 9.04896L6.90625 8.5L5.74458 7.33833C5.11806 6.71186 4.70299 5.90525 4.55742 5.03129L4.43558 4.301Z" fill="#3E4D31" />
</svg>