<svg width="17" height="17" viewBox="0 0 17 17" fill="none" xmlns="http://www.w3.org/2000/svg">
  <path fill-rule="evenodd" clip-rule="evenodd" d="M8.5 1.59375C4.68562 1.59375 1.59375 4.68562 1.59375 8.5C1.59375 12.3144 4.68562 15.4062 8.5 15.4062C12.3144 15.4062 15.4062 12.3144 15.4062 8.5C15.4062 4.68562 12.3144 1.59375 8.5 1.59375ZM9.03125 4.25C9.03125 4.1091 8.97528 3.97398 8.87565 3.87435C8.77602 3.77472 8.6409 3.71875 8.5 3.71875C8.3591 3.71875 8.22398 3.77472 8.12435 3.87435C8.02472 3.97398 7.96875 4.1091 7.96875 4.25V8.5C7.96875 8.79325 8.20675 9.03125 8.5 9.03125H11.6875C11.8284 9.03125 11.9635 8.97528 12.0632 8.87565C12.1628 8.77602 12.2188 8.6409 12.2188 8.5C12.2188 8.3591 12.1628 8.22398 12.0632 8.12435C11.9635 8.02472 11.8284 7.96875 11.6875 7.96875H9.03125V4.25Z" fill="#3E4D31" />
</svg>